<svg xmlns="http://www.w3.org/2000/svg" xmlns:xlink="http://www.w3.org/1999/xlink" width="500" zoomAndPan="magnify" viewBox="0 0 375 374.999991" height="500" preserveAspectRatio="xMidYMid meet" version="1.0"><defs><g/><clipPath id="06315e069c"><path d="M 9.988281 6.929688 L 361.957031 6.929688 L 361.957031 365 L 9.988281 365 Z M 9.988281 6.929688 " clip-rule="nonzero"/></clipPath><clipPath id="0f0666b0b1"><path d="M 27.238281 6.929688 L 344.707031 6.929688 C 349.28125 6.929688 353.667969 8.746094 356.902344 11.980469 C 360.140625 15.214844 361.957031 19.605469 361.957031 24.179688 L 361.957031 347.761719 C 361.957031 352.339844 360.140625 356.726562 356.902344 359.960938 C 353.667969 363.195312 349.28125 365.011719 344.707031 365.011719 L 27.238281 365.011719 C 22.660156 365.011719 18.273438 363.195312 15.039062 359.960938 C 11.804688 356.726562 9.988281 352.339844 9.988281 347.761719 L 9.988281 24.179688 C 9.988281 19.605469 11.804688 15.214844 15.039062 11.980469 C 18.273438 8.746094 22.660156 6.929688 27.238281 6.929688 Z M 27.238281 6.929688 " clip-rule="nonzero"/></clipPath></defs><g clip-path="url(#06315e069c)"><g clip-path="url(#0f0666b0b1)"><path fill="#ffffff" d="M 9.988281 6.929688 L 361.957031 6.929688 L 361.957031 364.398438 L 9.988281 364.398438 Z M 9.988281 6.929688 " fill-opacity="1" fill-rule="nonzero"/></g></g><g fill="#000000" fill-opacity="1"><g transform="translate(73.90426, 292.450121)"><g><path d="M 38.65625 -204.078125 L 15.28125 -207.671875 L 15.28125 -222.65625 L 54.546875 -222.65625 C 60.734375 -222.65625 69.625 -223.054688 81.21875 -223.859375 C 92.800781 -224.648438 101.488281 -225.046875 107.28125 -225.046875 C 144.4375 -225.046875 172.054688 -215.707031 190.140625 -197.03125 C 208.222656 -178.351562 217.265625 -152.132812 217.265625 -118.375 C 217.265625 -94.800781 212.617188 -73.875 203.328125 -55.59375 C 194.035156 -37.3125 181 -23.078125 164.21875 -12.890625 C 147.4375 -2.703125 128.160156 2.390625 106.390625 2.390625 C 101.585938 2.390625 93.394531 1.992188 81.8125 1.203125 C 69.820312 0.398438 60.832031 0 54.84375 0 L 13.78125 0 L 13.78125 -14.6875 L 38.65625 -17.6875 Z M 70.421875 -16.78125 C 77.410156 -15.1875 86.398438 -14.390625 97.390625 -14.390625 L 106.390625 -14.390625 C 121.367188 -14.585938 134.601562 -18.378906 146.09375 -25.765625 C 157.582031 -33.160156 166.519531 -44.195312 172.90625 -58.875 C 179.300781 -73.5625 182.5 -91.394531 182.5 -112.375 C 182.5 -143.9375 175.65625 -167.910156 161.96875 -184.296875 C 148.28125 -200.679688 127.65625 -208.875 100.09375 -208.875 C 94.300781 -208.875 87.40625 -208.472656 79.40625 -207.671875 C 76.007812 -207.078125 73.015625 -206.78125 70.421875 -206.78125 Z M 70.421875 -16.78125 "/></g></g></g></svg>